<svg id="Camada_1" data-name="Camada 1" xmlns="http://www.w3.org/2000/svg" viewBox="0 0 750.93 544.49"><defs><style>.cls-1{fill:#fff;}</style></defs><path class="cls-1" d="M444.24,161.29c-8.5-11.6-23.51-14.83-23.51-14.83,10.66-10.91,15.56-21.35,15.56-34.27q0-14.47-8.15-20.93c-5.39-4.31-13.39-6.33-23.93-6S381,88,366.12,92.36l-67,19.73V174l64.75-19a180.48,180.48,0,0,1,32.09-6.72,83.22,83.22,0,0,1,19.27,0l-2.37,2.42c-.66.68-1.33,1.32-2.08,2-11,10.09-27.76,18.51-49.69,25l-62,18.41v85.52L375,259c23.89-7.1,42.66-16.92,55.8-29.21,13.94-13,21-27.91,21-44.17C451.83,175.71,449,167.73,444.24,161.29Zm-25.73,56.3C407.4,228,391,236.44,369.82,242.74l-48.9,14.55V207.45L366.27,194c23.91-7.1,42.62-16.53,55.57-28a18.3,18.3,0,0,1,8.46,5.78c2.56,3.17,3.86,7.84,3.86,13.9C434.16,197.3,429,207.74,418.51,217.59Z"/><path class="cls-1" d="M99.8,360.33A17.36,17.36,0,0,1,90,357.57a8.74,8.74,0,0,1-4.18-7.72,8.59,8.59,0,0,1,4.18-7.6,17.58,17.58,0,0,1,9.81-2.72,17.2,17.2,0,0,1,9.67,2.72,8.62,8.62,0,0,1,4.14,7.6,8.77,8.77,0,0,1-4.14,7.72A17,17,0,0,1,99.8,360.33ZM88.27,457.5V372.57h22.88V457.5Z"/><path class="cls-1" d="M214.52,403.75V457.5H191.29V409.75a28.16,28.16,0,0,0-1.8-10.35,14.45,14.45,0,0,0-6.16-7.24q-4.35-2.64-12-2.64a23.74,23.74,0,0,0-11.87,2.92,21.19,21.19,0,0,0-8.14,8,22.9,22.9,0,0,0-2.95,11.72V457.5H125.22V372.56h23.14v12.82a37.77,37.77,0,0,1,11.79-9.54A42.12,42.12,0,0,1,180,371.12q11.26,0,19,4a26.78,26.78,0,0,1,11.61,11.36A36.23,36.23,0,0,1,214.52,403.75Z"/><path class="cls-1" d="M313.75,407.83a26.09,26.09,0,0,0-11.21-8.95,36.86,36.86,0,0,0-13.42-3,29.41,29.41,0,0,0,12.32-3.68,26.59,26.59,0,0,0,13.81-24.32q0-9.1-4.36-15.43t-13-9.64q-8.62-3.32-21.64-3.32H227.71v118h48.13q15,0,24.41-4.16t13.68-11.64a34,34,0,0,0,4.31-17.31Q318.24,414,313.75,407.83Zm-31.62-49.94a14.57,14.57,0,0,1,7.39,4.84,13.82,13.82,0,0,1,2.5,8.63,14.5,14.5,0,0,1-6,12.36q-6,4.44-17.64,4.44H249.88V356.33h20.5A38.89,38.89,0,0,1,282.13,357.89Zm6.46,78.18q-6.07,4.64-17.33,4.63H249.88V404.87h19.8a44.41,44.41,0,0,1,9.89,1,24.78,24.78,0,0,1,7.92,3.24,15.54,15.54,0,0,1,5.28,5.68,17.11,17.11,0,0,1,1.89,8.28Q294.66,431.42,288.59,436.07Z"/><path class="cls-1" d="M376,459.18q-14.79,0-26-5.64a43.47,43.47,0,0,1-17.64-15.63A41.56,41.56,0,0,1,325.89,415a41.11,41.11,0,0,1,6.38-22.83,43.64,43.64,0,0,1,17.64-15.48q11.25-5.6,26-5.59t26,5.59a43.64,43.64,0,0,1,17.64,15.48A41.19,41.19,0,0,1,426,415a41.64,41.64,0,0,1-6.38,22.88A43.47,43.47,0,0,1,402,453.54Q390.73,459.18,376,459.18ZM376,442a28.12,28.12,0,0,0,14-3.36,23.8,23.8,0,0,0,9.32-9.4A28.83,28.83,0,0,0,402.6,415a28.37,28.37,0,0,0-3.34-14.11,23.47,23.47,0,0,0-9.32-9.24,31.39,31.39,0,0,0-27.94,0,23.4,23.4,0,0,0-9.37,9.24A28.37,28.37,0,0,0,349.29,415a28.83,28.83,0,0,0,3.34,14.2,23.73,23.73,0,0,0,9.37,9.4A28.18,28.18,0,0,0,376,442Z"/><path class="cls-1" d="M460.4,339.53v118H437.62v-118Z"/><path class="cls-1" d="M513,459.26a72.74,72.74,0,0,1-15.88-1.68,47.49,47.49,0,0,1-13.37-5,27.43,27.43,0,0,1-9.24-8.35,20.2,20.2,0,0,1-3.38-11.56v-1.84h23.05v1.44q0,5.2,5.23,7.8t14.3,2.6a43,43,0,0,0,9.28-1,18.33,18.33,0,0,0,7-3,6.12,6.12,0,0,0,2.68-5.12q0-5-5.67-7.2t-17.82-3.92a120.46,120.46,0,0,1-13.2-2.8A51.91,51.91,0,0,1,484.2,415a25.94,25.94,0,0,1-8.53-7.35,17.71,17.71,0,0,1-3.21-10.72,19.58,19.58,0,0,1,5.5-14.12,34.6,34.6,0,0,1,14.77-8.67,66.89,66.89,0,0,1,20.46-3,60.47,60.47,0,0,1,20,3.2,36.46,36.46,0,0,1,14.91,9.19A20.34,20.34,0,0,1,553.75,398v1.28H530.87v-1a7.75,7.75,0,0,0-2.55-6,15.94,15.94,0,0,0-6.6-3.44,32.12,32.12,0,0,0-8.53-1.12,46.73,46.73,0,0,0-8.18.76,18.54,18.54,0,0,0-7,2.64,6,6,0,0,0-2.82,5.24,6.07,6.07,0,0,0,2.91,5.2,25.46,25.46,0,0,0,8.09,3.32q5.19,1.32,12,2.36a129.15,129.15,0,0,1,13,2.64,57.88,57.88,0,0,1,12,4.47,25.29,25.29,0,0,1,8.84,7.32,18.08,18.08,0,0,1,3.39,11.16,20.19,20.19,0,0,1-3.52,12,27.42,27.42,0,0,1-9.54,8.19,48.76,48.76,0,0,1-13.6,4.76A78.77,78.77,0,0,1,513,459.26Z"/><path class="cls-1" d="M615.06,459.18q-14.77,0-26-5.64a43.59,43.59,0,0,1-17.64-15.63A41.64,41.64,0,0,1,565,415a41.19,41.19,0,0,1,6.37-22.83A43.77,43.77,0,0,1,589,376.72q11.26-5.6,26-5.59t26.05,5.59a43.67,43.67,0,0,1,17.63,15.48A41.11,41.11,0,0,1,665.12,415a41.56,41.56,0,0,1-6.38,22.88,43.5,43.5,0,0,1-17.63,15.63Q629.85,459.18,615.06,459.18Zm0-17.19a28.1,28.1,0,0,0,14-3.36,23.76,23.76,0,0,0,9.33-9.4,28.83,28.83,0,0,0,3.34-14.2,28.37,28.37,0,0,0-3.34-14.11,23.43,23.43,0,0,0-9.33-9.24,31.37,31.37,0,0,0-27.93,0,23.34,23.34,0,0,0-9.37,9.24A28.37,28.37,0,0,0,588.41,415a28.83,28.83,0,0,0,3.34,14.2,23.67,23.67,0,0,0,9.37,9.4A28.17,28.17,0,0,0,615.06,442Z"/></svg>